# xmcd
#
# Track frame offsets: 
#        150
#        14713
#        25404
#        38576
#        54503
#        70501
#        89166
#        99614
#        118745
#        131174
#        147258
#        160383
#
# Disc length: 2330 seconds
#
# Revision: 0
# Processed by: cddbd v1.5.2PL0 Copyright (c) Steve Scherf et al.
# Submitted via: ExactAudioCopy v0.99pb5
#
DISCID=ac09180c
DTITLE=Eleven Hundred Springs   - This Crazy Life
DYEAR=2010
DGENRE=Country
TTITLE0=This Crazy Life
TTITLE1=Great American Trainwreck
TTITLE2=There's A Place For You
TTITLE3=Show Me The Money (Or I'll Show You The Door)
TTITLE4=The OG Blues
TTITLE5=Honky Tonk Angels (Don't Happen Overnight)
TTITLE6=I'm In A Mellow Mood
TTITLE7=High On The Town
TTITLE8=Some Things Don't Go Together
TTITLE9=Get Through The Day
TTITLE10=I'll Get On To Getting Over You Tomorrow
TTITLE11=Straight To Bed
EXTD=
EXTT0=
EXTT1=
EXTT2=
EXTT3=
EXTT4=
EXTT5=
EXTT6=
EXTT7=
EXTT8=
EXTT9=
EXTT10=
EXTT11=
PLAYORDER=
